<svg width="72" height="72" viewBox="0 0 72 72" fill="none" xmlns="http://www.w3.org/2000/svg">
<g opacity="0.902222">
<path d="M9.85256 28.5617C11.1378 28.2849 12.4039 29.1023 12.6809 30.3873C12.9576 31.6725 12.1402 32.9391 10.855 33.2158C9.56981 33.4928 8.30344 32.6752 8.02649 31.39C7.74974 30.1048 8.56735 28.8384 9.85256 28.5617Z" fill="#FF6D83"/>
<path d="M60.137 21.1156C61.4033 20.8429 62.6511 21.6481 62.9237 22.9144C63.1966 24.1807 62.3912 25.4282 61.1249 25.7011C59.8586 25.9738 58.6111 25.1686 58.3382 23.9023C58.0655 22.636 58.8709 21.3882 60.137 21.1156Z" fill="#6DB8FF"/>
<path d="M37.3727 6.71949C38.6957 6.4346 39.9991 7.27605 40.284 8.59884C40.5691 9.92185 39.7274 11.2257 38.4044 11.5106C37.0814 11.7957 35.778 10.954 35.4929 9.63099C35.208 8.30799 36.0497 7.00437 37.3727 6.71949Z" fill="#FFB636"/>
<path d="M25.4118 58.5242C26.7348 58.2391 28.038 59.0806 28.3231 60.4036C28.6079 61.7266 27.7667 63.03 26.4437 63.3151C25.1207 63.6 23.8171 62.7588 23.532 61.4358C23.2471 60.113 24.0888 58.8091 25.4118 58.5242Z" fill="#6DB8FF"/>
<path d="M58.8886 47.0484C60.2303 46.7594 61.5525 47.6129 61.8415 48.9548C62.1307 50.2967 61.277 51.6187 59.9351 51.9077C58.5932 52.1969 57.2712 51.3434 56.982 50.0015C56.693 48.6596 57.5467 47.3376 58.8886 47.0484Z" fill="#BDA3FF"/>
</g>
<path d="M41.5265 15.366C52.9215 18.4192 59.6835 30.1317 56.6304 41.5264C53.5769 52.9214 41.8642 59.6834 30.4695 56.6301C19.0748 53.5766 12.3125 41.8643 15.3661 30.4696C18.4191 19.0747 30.1316 12.3127 41.5265 15.366Z" fill="#43D296"/>
<path d="M32.4579 44.1129C32.2143 44.3329 31.8393 44.317 31.6148 44.0774L23.8613 35.7972C23.596 35.4659 23.4675 35.0485 23.5016 34.6288C23.5356 34.2086 23.7299 33.8174 24.0455 33.5323C24.361 33.2475 24.7747 33.0902 25.2034 33.0919C25.6324 33.0935 26.0451 33.254 26.3593 33.5416L31.9472 39.5091C32.0966 39.6688 32.3467 39.6791 32.5091 39.5324L44.2283 28.9504C44.5652 28.6902 44.9902 28.5645 45.4177 28.599C45.8453 28.6332 46.244 28.8244 46.5345 29.135C46.8251 29.445 46.9859 29.8516 46.9849 30.2728C46.9838 30.6941 46.821 31.099 46.5287 31.4073L32.4579 44.1129Z" fill="white"/>
<path d="M14.73 9.3668C13.812 9.02554 12.7238 8.79282 11.4336 8.71875" stroke="#FF6E83" stroke-width="5.28661" stroke-linecap="round"/>
<path d="M11.4164 60.7599C8.13969 59.2429 9.60297 62.683 9.74073 64.3479" stroke="#BEA4FF" stroke-width="5" stroke-linecap="round"/>
<path d="M58.662 13.4961C61.3297 10.4998 64.4662 10.9735 66.2259 11.463" stroke="#FFB636" stroke-width="4.52063" stroke-linecap="round"/>
<path d="M56.9453 61.1641C58.9123 62.1514 59.0895 63.0541 58.9829 63.5533" stroke="#6EB9FF" stroke-width="5" stroke-linecap="round"/>
</svg>
