<svg width="22" height="22" viewBox="0 0 22 22" fill="none" xmlns="http://www.w3.org/2000/svg">
<path d="M2.83333 0.5C2.21449 0.5 1.621 0.745833 1.18342 1.18342C0.745833 1.621 0.5 2.21449 0.5 2.83333V19.1667C0.5 19.7855 0.745833 20.379 1.18342 20.8166C1.621 21.2542 2.21449 21.5 2.83333 21.5H19.1667C19.7855 21.5 20.379 21.2542 20.8166 20.8166C21.2542 20.379 21.5 19.7855 21.5 19.1667V2.83333C21.5 2.21449 21.2542 1.621 20.8166 1.18342C20.379 0.745833 19.7855 0.5 19.1667 0.5H2.83333ZM16.8333 12.1667H5.16667V9.83333H16.8333V12.1667Z" fill="#FE4C4C"/>
</svg>
